<?xml version="1.0" encoding="utf-8"?>
<svg viewBox="75.533 10.435 284.923 85.313" width="284.923" height="85.313" xmlns="http://www.w3.org/2000/svg" fill="currentColor">
  <path d="M 104.284 34.543 C 104.112 34.171 103.785 33.821 103.064 33.435 C 102.342 33.054 101.825 32.764 100.676 32.628 C 99.528 32.491 98.697 32.392 97.318 32.755 C 95.938 33.118 95.18 33.54 93.773 34.452 C 92.366 35.369 91.554 36.013 90.283 37.321 C 89.012 38.623 88.322 39.49 87.414 40.988 C 86.502 42.481 86.057 43.352 85.735 44.8 C 85.413 46.248 85.444 47.051 85.803 48.222 C 86.162 49.389 86.606 49.924 87.532 50.646 C 88.458 51.368 89.157 51.617 90.432 51.831 C 91.703 52.044 92.498 51.994 93.895 51.717 C 95.293 51.44 96.065 51.123 97.417 50.442 C 98.77 49.757 99.478 49.294 100.663 48.304 C 101.847 47.31 102.419 46.679 103.35 45.477 C 104.28 44.274 104.738 43.548 105.306 42.295 C 105.873 41.038 106.073 40.271 106.191 39.2 C 106.309 38.124 106.195 37.525 105.891 36.93 C 105.592 36.336 105.183 36.131 104.693 36.227 C 104.203 36.318 103.758 36.626 103.445 37.398 C 103.132 38.169 103.005 38.9 103.127 40.089 C 103.25 41.278 103.495 42.091 104.058 43.348 C 104.62 44.605 105.056 45.29 105.946 46.375 C 106.835 47.46 107.393 47.996 108.505 48.776 C 109.617 49.552 110.262 49.856 111.51 50.26 C 112.758 50.664 113.444 50.778 114.746 50.787 C 116.049 50.796 116.743 50.723 118.023 50.315 C 119.298 49.902 119.961 49.598 121.132 48.735 C 122.303 47.873 122.879 47.306 123.878 46.008 C 124.872 44.71 125.335 43.915 126.115 42.245 C 126.896 40.579 127.25 39.576 127.772 37.67 C 128.299 35.764 128.498 34.656 128.734 32.705 C 128.975 30.753 129.007 29.691 128.966 27.907 C 128.925 26.119 128.857 25.225 128.53 23.777 C 128.203 22.329 127.945 21.649 127.327 20.668 C 126.715 19.683 126.283 19.261 125.453 18.866 C 124.622 18.471 124.059 18.39 123.179 18.694 C 122.298 18.998 121.718 19.352 121.05 20.387 C 120.383 21.422 120.134 22.248 119.834 23.868 C 119.534 25.493 119.485 26.555 119.557 28.506 C 119.63 30.454 119.748 31.611 120.202 33.608 C 120.655 35.609 120.987 36.694 121.822 38.496 C 122.652 40.302 123.193 41.178 124.368 42.631 C 125.544 44.079 126.261 44.714 127.69 45.753 C 129.12 46.793 129.933 47.215 131.521 47.828 C 133.11 48.44 133.981 48.635 135.633 48.822 C 137.285 49.012 138.166 48.98 139.777 48.767 C 141.393 48.558 142.214 48.34 143.698 47.759 C 145.187 47.179 145.927 46.761 147.211 45.862 C 148.491 44.968 149.136 44.392 150.102 43.275 C 151.074 42.163 151.532 41.487 152.049 40.284 C 152.567 39.086 152.689 38.383 152.685 37.266 C 152.68 36.15 152.531 35.56 152.031 34.711 C 151.532 33.862 151.078 33.454 150.184 33.018 C 149.29 32.587 148.645 32.455 147.556 32.537 C 146.467 32.618 145.782 32.823 144.742 33.422 C 143.698 34.021 143.099 34.52 142.35 35.541 C 141.601 36.563 141.247 37.266 140.998 38.532 C 140.748 39.794 140.725 40.588 141.098 41.859 C 141.47 43.135 141.851 43.852 142.859 44.891 C 143.862 45.935 144.602 46.375 146.117 47.074 C 147.633 47.773 148.582 48.023 150.438 48.39 C 152.299 48.763 153.375 48.862 155.404 48.93 C 157.428 48.999 158.535 48.93 160.564 48.731 C 162.593 48.536 163.691 48.35 165.552 47.937 C 167.417 47.523 168.334 47.269 169.873 46.666 C 171.416 46.067 172.129 45.722 173.263 44.927 C 174.398 44.138 174.843 43.629 175.551 42.712 C 176.259 41.791 176.445 41.278 176.794 40.334 C 177.148 39.39 177.207 38.873 177.307 37.997 C 177.407 37.116 177.362 36.608 177.289 35.941 C 177.216 35.274 177.076 35.06 176.94 34.656 C 176.799 34.248 176.781 34.062 176.599 33.907 C 176.413 33.753 176.222 33.726 176.023 33.88 C 175.823 34.035 175.728 34.261 175.61 34.684 C 175.487 35.106 175.455 35.364 175.415 35.991 C 175.378 36.622 175.469 37.071 175.419 37.824 C 175.369 38.582 175.41 39 175.169 39.771 C 174.929 40.543 174.797 40.929 174.216 41.682 C 173.635 42.431 173.245 42.808 172.26 43.525 C 171.28 44.242 170.703 44.664 169.301 45.277 C 167.899 45.89 167.018 46.166 165.243 46.593 C 163.473 47.02 162.389 47.21 160.432 47.401 C 158.476 47.592 157.396 47.646 155.458 47.546 C 153.525 47.451 152.481 47.315 150.756 46.915 C 149.036 46.52 148.16 46.221 146.853 45.554 C 145.546 44.891 145.019 44.433 144.225 43.588 C 143.435 42.744 143.163 42.268 142.904 41.342 C 142.641 40.411 142.695 39.858 142.913 38.945 C 143.136 38.038 143.431 37.534 144.007 36.79 C 144.588 36.045 145.055 35.687 145.809 35.228 C 146.562 34.765 147.039 34.606 147.779 34.479 C 148.514 34.352 148.922 34.384 149.499 34.588 C 150.075 34.793 150.361 34.979 150.656 35.505 C 150.951 36.027 151.037 36.408 150.969 37.212 C 150.901 38.01 150.77 38.541 150.32 39.522 C 149.871 40.498 149.535 41.106 148.718 42.1 C 147.897 43.089 147.343 43.652 146.217 44.483 C 145.096 45.309 144.424 45.699 143.095 46.239 C 141.765 46.784 141.02 46.979 139.564 47.188 C 138.102 47.396 137.299 47.433 135.796 47.283 C 134.294 47.133 133.5 46.974 132.048 46.434 C 130.591 45.899 129.842 45.531 128.516 44.601 C 127.191 43.666 126.519 43.103 125.421 41.768 C 124.327 40.439 123.81 39.626 123.043 37.938 C 122.271 36.245 121.954 35.206 121.572 33.317 C 121.191 31.425 121.109 30.299 121.132 28.484 C 121.155 26.668 121.364 25.674 121.686 24.245 C 122.008 22.819 122.33 22.202 122.739 21.349 C 123.147 20.496 123.324 20.232 123.733 19.974 C 124.146 19.715 124.364 19.756 124.795 20.06 C 125.226 20.364 125.476 20.673 125.898 21.49 C 126.324 22.311 126.588 22.865 126.905 24.158 C 127.227 25.452 127.409 26.283 127.495 27.962 C 127.586 29.637 127.563 30.676 127.345 32.541 C 127.128 34.402 126.923 35.478 126.406 37.284 C 125.884 39.095 125.512 40.048 124.74 41.582 C 123.973 43.116 123.497 43.834 122.562 44.959 C 121.622 46.089 121.078 46.516 120.056 47.224 C 119.031 47.927 118.5 48.154 117.442 48.486 C 116.38 48.817 115.826 48.89 114.76 48.881 C 113.693 48.876 113.126 48.785 112.105 48.445 C 111.083 48.104 110.557 47.846 109.654 47.174 C 108.755 46.502 108.288 46.039 107.611 45.091 C 106.935 44.147 106.667 43.52 106.272 42.44 C 105.882 41.365 105.846 40.67 105.646 39.708 C 105.446 38.746 105.406 38.228 105.265 37.629 C 105.129 37.035 105.07 36.821 104.952 36.721 C 104.829 36.626 104.793 36.712 104.67 37.139 C 104.543 37.566 104.557 37.992 104.321 38.859 C 104.085 39.726 103.976 40.375 103.49 41.483 C 103.005 42.585 102.691 43.293 101.897 44.383 C 101.103 45.467 100.572 46.044 99.51 46.915 C 98.452 47.787 97.794 48.182 96.591 48.74 C 95.389 49.298 94.681 49.48 93.496 49.711 C 92.316 49.947 91.681 49.993 90.673 49.915 C 89.665 49.843 89.139 49.766 88.467 49.339 C 87.791 48.912 87.51 48.622 87.305 47.796 C 87.097 46.965 87.124 46.393 87.428 45.2 C 87.732 44.011 88.009 43.175 88.812 41.832 C 89.616 40.484 90.269 39.64 91.445 38.469 C 92.625 37.298 93.433 36.703 94.703 35.982 C 95.979 35.255 96.66 35.083 97.812 34.847 C 98.965 34.616 99.537 34.756 100.472 34.815 C 101.402 34.874 101.793 35.047 102.483 35.142 C 103.173 35.242 103.563 35.423 103.926 35.305 C 104.284 35.183 104.457 34.915 104.284 34.543" />
  <path d="M 166.569 35.759 C 166.591 36.041 166.673 36.113 167.032 36.544 C 167.395 36.976 167.581 37.289 168.371 37.911 C 169.16 38.532 169.755 38.886 170.98 39.653 C 172.206 40.425 173.009 40.879 174.498 41.755 C 175.982 42.635 176.835 43.166 178.406 44.042 C 179.976 44.914 180.802 45.363 182.345 46.13 C 183.893 46.897 184.687 47.26 186.126 47.882 C 187.569 48.499 188.277 48.826 189.557 49.235 C 190.832 49.648 191.441 49.775 192.516 49.934 C 193.592 50.088 194.1 50.124 194.944 50.029 C 195.784 49.929 196.184 49.729 196.728 49.443 C 197.273 49.162 197.436 48.935 197.668 48.613 C 197.899 48.286 197.931 48.045 197.876 47.823 C 197.827 47.596 197.609 47.505 197.409 47.487 C 197.209 47.469 197.146 47.619 196.887 47.728 C 196.628 47.832 196.533 47.891 196.115 48.023 C 195.698 48.154 195.462 48.35 194.799 48.386 C 194.137 48.422 193.746 48.381 192.807 48.2 C 191.867 48.023 191.314 47.85 190.097 47.487 C 188.885 47.124 188.155 46.929 186.739 46.384 C 185.322 45.84 184.533 45.499 183.021 44.759 C 181.51 44.02 180.698 43.579 179.182 42.685 C 177.666 41.791 176.835 41.247 175.442 40.28 C 174.048 39.313 173.363 38.7 172.215 37.847 C 171.066 36.994 170.558 36.549 169.7 36.018 C 168.843 35.482 168.484 35.36 167.926 35.187 C 167.367 35.01 167.181 35.033 166.909 35.147 C 166.637 35.26 166.541 35.482 166.569 35.759" />
  <path d="M 208.796 34.92 C 208.574 34.62 208.225 34.366 207.521 34.23 C 206.813 34.094 206.291 33.998 205.261 34.243 C 204.231 34.488 203.5 34.697 202.374 35.455 C 201.244 36.218 200.659 36.912 199.628 38.051 C 198.598 39.19 197.99 39.899 197.227 41.16 C 196.465 42.422 196.075 43.148 195.816 44.355 C 195.562 45.567 195.603 46.239 195.947 47.21 C 196.292 48.186 196.687 48.631 197.536 49.221 C 198.389 49.811 199.025 50.006 200.209 50.165 C 201.389 50.324 202.138 50.278 203.45 50.015 C 204.762 49.757 205.492 49.461 206.763 48.849 C 208.039 48.236 208.71 47.828 209.809 46.961 C 210.907 46.089 211.465 45.54 212.25 44.505 C 213.04 43.47 213.371 42.812 213.744 41.796 C 214.12 40.774 214.197 40.175 214.125 39.404 C 214.048 38.632 213.794 38.219 213.371 37.938 C 212.949 37.661 212.468 37.665 212.019 38.02 C 211.57 38.369 211.243 38.846 211.134 39.69 C 211.02 40.538 211.093 41.228 211.461 42.254 C 211.828 43.28 212.223 43.897 212.972 44.823 C 213.725 45.744 214.238 46.207 215.223 46.874 C 216.208 47.542 216.803 47.809 217.892 48.154 C 218.977 48.499 219.589 48.576 220.656 48.599 C 221.727 48.626 222.272 48.549 223.234 48.277 C 224.196 48.005 224.668 47.787 225.467 47.238 C 226.266 46.684 226.624 46.298 227.233 45.526 C 227.836 44.75 228.113 44.251 228.494 43.371 C 228.876 42.49 229.062 41.841 229.139 41.124 C 229.211 40.407 228.998 39.994 228.862 39.794 C 228.73 39.594 228.508 39.735 228.476 40.121 C 228.444 40.507 228.44 40.965 228.712 41.728 C 228.984 42.49 229.22 43.112 229.838 43.933 C 230.455 44.759 230.963 45.231 231.798 45.844 C 232.634 46.452 233.119 46.684 234.018 46.988 C 234.917 47.292 235.379 47.378 236.292 47.374 C 237.199 47.365 237.676 47.265 238.57 46.952 C 239.464 46.634 239.905 46.366 240.762 45.794 C 241.616 45.222 242.06 44.818 242.855 44.092 C 243.653 43.371 244.044 42.889 244.738 42.177 C 245.437 41.46 245.787 41.051 246.345 40.52 C 246.899 39.985 247.112 39.694 247.525 39.508 C 247.938 39.327 248.029 39.377 248.405 39.608 C 248.787 39.84 248.941 40.116 249.422 40.661 C 249.899 41.201 250.148 41.605 250.797 42.309 C 251.446 43.012 251.841 43.475 252.667 44.174 C 253.498 44.877 253.983 45.236 254.937 45.817 C 255.894 46.398 256.407 46.657 257.451 47.079 C 258.49 47.505 259.071 47.719 260.147 47.941 C 261.223 48.159 261.858 48.232 262.829 48.182 C 263.805 48.132 264.577 47.968 265.017 47.696 C 265.453 47.428 265.43 47.106 265.022 46.834 C 264.609 46.557 263.846 46.502 262.961 46.325 C 262.071 46.148 261.531 46.162 260.583 45.939 C 259.634 45.722 259.121 45.59 258.209 45.218 C 257.301 44.846 256.852 44.614 256.035 44.079 C 255.213 43.539 254.837 43.203 254.111 42.535 C 253.389 41.873 253.089 41.424 252.418 40.752 C 251.75 40.08 251.455 39.694 250.77 39.177 C 250.085 38.659 249.731 38.392 248.995 38.165 C 248.26 37.938 247.865 37.879 247.094 38.047 C 246.322 38.215 245.914 38.487 245.142 39.004 C 244.371 39.522 243.998 39.939 243.245 40.638 C 242.492 41.333 242.11 41.791 241.371 42.486 C 240.635 43.175 240.249 43.557 239.551 44.097 C 238.852 44.637 238.529 44.882 237.871 45.182 C 237.213 45.481 236.9 45.572 236.265 45.585 C 235.625 45.604 235.298 45.536 234.681 45.259 C 234.068 44.986 233.732 44.782 233.192 44.215 C 232.652 43.647 232.457 43.157 231.975 42.427 C 231.499 41.696 231.29 41.169 230.791 40.561 C 230.287 39.948 229.997 39.622 229.475 39.363 C 228.957 39.104 228.662 39.036 228.19 39.263 C 227.723 39.495 227.473 39.853 227.128 40.507 C 226.783 41.165 226.756 41.764 226.461 42.54 C 226.166 43.316 226.062 43.747 225.649 44.387 C 225.24 45.023 224.986 45.309 224.405 45.731 C 223.824 46.148 223.484 46.298 222.748 46.484 C 222.013 46.675 221.573 46.716 220.724 46.675 C 219.875 46.629 219.372 46.57 218.514 46.271 C 217.651 45.971 217.17 45.749 216.426 45.186 C 215.677 44.623 215.3 44.215 214.774 43.457 C 214.252 42.699 214.098 42.163 213.812 41.392 C 213.521 40.625 213.499 40.18 213.335 39.608 C 213.172 39.041 213.117 38.791 212.995 38.555 C 212.868 38.319 212.813 38.283 212.713 38.437 C 212.613 38.587 212.645 38.787 212.5 39.313 C 212.35 39.84 212.341 40.28 211.974 41.069 C 211.606 41.859 211.343 42.408 210.662 43.271 C 209.977 44.129 209.514 44.628 208.56 45.368 C 207.603 46.107 206.999 46.466 205.887 46.965 C 204.775 47.469 204.108 47.637 203.005 47.873 C 201.902 48.114 201.294 48.163 200.368 48.154 C 199.442 48.145 198.97 48.109 198.371 47.828 C 197.767 47.551 197.522 47.36 197.364 46.761 C 197.209 46.162 197.273 45.735 197.586 44.832 C 197.899 43.929 198.221 43.312 198.934 42.236 C 199.647 41.165 200.196 40.439 201.144 39.472 C 202.093 38.505 202.733 38.038 203.681 37.407 C 204.625 36.771 205.116 36.608 205.878 36.318 C 206.641 36.032 206.94 36.081 207.494 35.968 C 208.043 35.85 208.379 35.95 208.638 35.741 C 208.901 35.532 209.019 35.224 208.796 34.92" />
  <path d="M 280.97 40.684 C 280.925 40.289 280.721 39.889 280.199 39.367 C 279.672 38.846 279.282 38.473 278.352 38.079 C 277.417 37.679 276.727 37.443 275.533 37.389 C 274.339 37.334 273.631 37.452 272.379 37.797 C 271.126 38.147 270.404 38.446 269.279 39.136 C 268.153 39.826 267.531 40.307 266.755 41.251 C 265.979 42.191 265.652 42.812 265.398 43.838 C 265.144 44.864 265.167 45.467 265.48 46.384 C 265.793 47.306 266.152 47.782 266.96 48.431 C 267.767 49.08 268.371 49.371 269.528 49.634 C 270.681 49.897 271.426 49.929 272.733 49.747 C 274.04 49.561 274.78 49.316 276.069 48.713 C 277.362 48.114 278.034 47.7 279.191 46.738 C 280.349 45.772 280.943 45.191 281.865 43.888 C 282.786 42.585 283.185 41.796 283.798 40.23 C 284.411 38.664 284.651 37.765 284.919 36.059 C 285.191 34.348 285.2 33.367 285.146 31.679 C 285.092 29.995 284.96 29.096 284.642 27.621 C 284.329 26.146 284.125 25.37 283.571 24.304 C 283.017 23.237 282.527 22.701 281.878 22.288 C 281.229 21.875 280.843 21.894 280.321 22.229 C 279.804 22.565 279.468 22.956 279.282 23.972 C 279.1 24.989 279.141 25.774 279.395 27.313 C 279.654 28.851 280.017 29.873 280.571 31.67 C 281.129 33.467 281.452 34.525 282.173 36.299 C 282.895 38.079 283.308 38.982 284.175 40.552 C 285.042 42.127 285.536 42.862 286.512 44.16 C 287.488 45.454 287.996 46.071 289.049 47.033 C 290.102 47.991 290.674 48.39 291.772 48.958 C 292.871 49.52 293.452 49.698 294.537 49.861 C 295.626 50.029 296.18 50.015 297.21 49.784 C 298.24 49.557 298.767 49.312 299.697 48.713 C 300.623 48.118 301.077 47.691 301.848 46.797 C 302.62 45.899 302.988 45.322 303.55 44.233 C 304.113 43.144 304.381 42.486 304.667 41.351 C 304.948 40.216 305.03 39.581 304.98 38.564 C 304.926 37.543 304.808 37.021 304.399 36.254 C 303.995 35.487 303.65 35.115 302.942 34.729 C 302.234 34.339 301.726 34.221 300.859 34.307 C 299.992 34.389 299.425 34.575 298.612 35.151 C 297.795 35.727 297.332 36.213 296.788 37.184 C 296.248 38.16 296.002 38.832 295.898 40.021 C 295.794 41.206 295.83 41.932 296.261 43.116 C 296.692 44.306 297.069 44.982 298.059 45.958 C 299.048 46.929 299.788 47.337 301.208 47.986 C 302.629 48.631 303.514 48.84 305.175 49.18 C 306.836 49.52 307.794 49.602 309.519 49.684 C 311.243 49.761 312.174 49.716 313.799 49.575 C 315.423 49.43 316.259 49.312 317.634 48.976 C 319.014 48.64 319.667 48.39 320.679 47.896 C 321.687 47.405 322.113 47.033 322.69 46.516 C 323.271 45.998 323.421 45.667 323.575 45.309 C 323.734 44.95 323.62 44.791 323.466 44.728 C 323.316 44.669 323.039 44.737 322.826 45.005 C 322.608 45.272 322.359 45.635 322.386 46.071 C 322.418 46.507 322.576 46.888 322.967 47.179 C 323.353 47.464 323.834 47.555 324.333 47.519 C 324.832 47.487 325.127 47.356 325.463 47.002 C 325.794 46.648 325.894 46.362 326.003 45.758 C 326.112 45.154 326.062 44.764 326.012 43.983 C 325.962 43.203 325.84 42.712 325.753 41.855 C 325.667 41.001 325.59 40.507 325.581 39.708 C 325.576 38.905 325.563 38.501 325.717 37.852 C 325.871 37.203 325.958 36.917 326.357 36.463 C 326.757 36.009 327.002 35.845 327.71 35.582 C 328.418 35.319 328.849 35.265 329.897 35.147 C 330.946 35.029 331.604 34.997 332.943 34.992 C 334.286 34.988 335.094 34.997 336.601 35.124 C 338.103 35.246 338.947 35.36 340.468 35.619 C 341.984 35.882 342.792 36.054 344.19 36.426 C 345.587 36.803 346.246 37.116 347.457 37.498 C 348.669 37.874 349.314 38.101 350.258 38.324 C 351.202 38.546 351.742 38.678 352.178 38.61 C 352.613 38.541 352.7 38.333 352.427 37.979 C 352.159 37.629 351.692 37.316 350.816 36.849 C 349.945 36.381 349.305 36.068 348.061 35.641 C 346.822 35.219 346.078 35.074 344.616 34.729 C 343.159 34.384 342.333 34.202 340.767 33.921 C 339.202 33.635 338.348 33.499 336.787 33.308 C 335.23 33.113 334.413 32.995 332.979 32.945 C 331.545 32.895 330.823 32.868 329.616 33.05 C 328.413 33.236 327.864 33.413 326.952 33.862 C 326.035 34.311 325.649 34.62 325.045 35.305 C 324.442 35.991 324.247 36.431 323.929 37.289 C 323.607 38.142 323.561 38.641 323.452 39.581 C 323.343 40.516 323.366 41.056 323.371 41.977 C 323.38 42.899 323.407 43.421 323.475 44.183 C 323.548 44.95 323.602 45.313 323.734 45.799 C 323.861 46.28 323.938 46.448 324.124 46.607 C 324.31 46.766 324.446 46.729 324.655 46.593 C 324.864 46.457 325.1 46.203 325.168 45.93 C 325.241 45.658 325.2 45.486 325.014 45.236 C 324.823 44.986 324.542 44.864 324.228 44.687 C 323.911 44.51 323.734 44.401 323.425 44.355 C 323.121 44.315 323.039 44.296 322.694 44.469 C 322.345 44.641 322.245 44.859 321.691 45.218 C 321.133 45.581 320.815 45.867 319.917 46.271 C 319.018 46.67 318.446 46.893 317.189 47.224 C 315.936 47.555 315.156 47.764 313.635 47.932 C 312.119 48.1 311.216 48.145 309.596 48.068 C 307.976 47.986 307.05 47.877 305.529 47.528 C 304.009 47.179 303.205 46.92 301.989 46.325 C 300.777 45.726 300.237 45.313 299.456 44.537 C 298.68 43.765 298.399 43.316 298.095 42.458 C 297.791 41.596 297.823 41.083 297.936 40.239 C 298.049 39.39 298.272 38.918 298.658 38.228 C 299.043 37.538 299.366 37.216 299.865 36.785 C 300.364 36.349 300.682 36.204 301.149 36.068 C 301.621 35.927 301.862 35.918 302.22 36.095 C 302.574 36.268 302.747 36.445 302.924 36.935 C 303.101 37.429 303.155 37.793 303.106 38.564 C 303.051 39.336 302.956 39.858 302.665 40.793 C 302.375 41.732 302.134 42.318 301.649 43.253 C 301.168 44.192 300.863 44.705 300.255 45.481 C 299.647 46.262 299.302 46.625 298.612 47.142 C 297.918 47.664 297.559 47.877 296.797 48.082 C 296.039 48.286 295.648 48.309 294.809 48.168 C 293.965 48.027 293.515 47.868 292.594 47.383 C 291.673 46.897 291.169 46.57 290.198 45.735 C 289.226 44.9 288.686 44.387 287.733 43.207 C 286.784 42.032 286.281 41.337 285.45 39.844 C 284.615 38.355 284.211 37.484 283.562 35.759 C 282.918 34.035 282.627 32.977 282.219 31.221 C 281.806 29.464 281.719 28.416 281.511 26.977 C 281.297 25.543 281.284 24.88 281.161 24.036 C 281.038 23.192 280.93 22.938 280.893 22.76 C 280.852 22.583 280.771 22.688 280.961 23.16 C 281.152 23.627 281.447 24.131 281.842 25.102 C 282.237 26.078 282.591 26.691 282.931 28.021 C 283.267 29.346 283.449 30.195 283.53 31.752 C 283.616 33.308 283.603 34.234 283.353 35.809 C 283.104 37.384 282.863 38.215 282.287 39.626 C 281.71 41.042 281.324 41.746 280.476 42.88 C 279.627 44.015 279.082 44.501 278.038 45.295 C 276.995 46.094 276.373 46.398 275.252 46.861 C 274.131 47.328 273.504 47.478 272.438 47.628 C 271.371 47.778 270.804 47.741 269.919 47.61 C 269.034 47.478 268.593 47.319 268.008 46.97 C 267.418 46.616 267.173 46.389 266.982 45.862 C 266.792 45.336 266.801 44.995 267.055 44.337 C 267.304 43.684 267.586 43.253 268.249 42.581 C 268.911 41.905 269.429 41.51 270.373 40.97 C 271.312 40.434 271.943 40.157 272.951 39.889 C 273.963 39.617 274.498 39.563 275.42 39.613 C 276.336 39.667 276.804 39.903 277.553 40.153 C 278.302 40.402 278.588 40.638 279.159 40.87 C 279.731 41.106 280.045 41.365 280.408 41.324 C 280.766 41.287 281.011 41.074 280.97 40.684" />
  <path d="M 183.301 68.642 C 183.069 68.395 182.752 68.187 182.04 68.074 C 181.325 67.957 180.794 67.822 179.734 68.079 C 178.677 68.333 177.969 68.601 176.747 69.355 C 175.523 70.107 174.831 70.682 173.62 71.844 C 172.413 73.008 171.705 73.763 170.702 75.172 C 169.695 76.576 169.162 77.416 168.594 78.878 C 168.024 80.34 167.796 81.149 167.857 82.485 C 167.916 83.816 168.145 84.527 168.896 85.538 C 169.646 86.547 170.284 86.947 171.612 87.532 C 172.938 88.112 173.82 88.262 175.528 88.443 C 177.233 88.629 178.244 88.607 180.144 88.443 C 182.044 88.281 183.112 88.108 185.028 87.64 C 186.942 87.171 187.952 86.853 189.728 86.103 C 191.505 85.352 192.384 84.899 193.908 83.879 C 195.432 82.861 196.175 82.284 197.345 81.006 C 198.516 79.73 199.004 79.006 199.755 77.501 C 200.509 75.992 200.765 75.137 201.11 73.464 C 201.457 71.794 201.512 70.857 201.485 69.135 C 201.457 67.412 201.306 66.493 200.974 64.851 C 200.645 63.211 200.355 62.367 199.832 60.923 C 199.305 59.484 198.977 58.791 198.358 57.642 C 197.735 56.493 197.406 55.948 196.732 55.181 C 196.057 54.415 195.657 54.106 194.984 53.819 C 194.307 53.533 193.92 53.486 193.351 53.753 C 192.781 54.02 192.433 54.307 192.144 55.15 C 191.85 55.994 191.814 56.624 191.896 57.971 C 191.976 59.322 192.189 60.196 192.554 61.884 C 192.918 63.574 193.18 64.607 193.723 66.422 C 194.259 68.237 194.601 69.243 195.259 70.952 C 195.916 72.664 196.31 73.51 197.004 74.97 C 197.697 76.429 198.048 77.106 198.722 78.253 C 199.391 79.396 199.698 79.919 200.358 80.697 C 201.024 81.479 201.38 81.776 202.038 82.144 C 202.695 82.512 203.028 82.597 203.648 82.536 C 204.268 82.473 204.58 82.311 205.134 81.831 C 205.686 81.35 205.946 80.937 206.414 80.136 C 206.879 79.331 207.064 78.743 207.474 77.81 C 207.881 76.881 208.07 76.293 208.445 75.481 C 208.822 74.668 209.023 74.25 209.344 73.755 C 209.669 73.259 209.795 73.086 210.064 73.005 C 210.327 72.924 210.395 73.02 210.674 73.352 C 210.953 73.685 211.07 74.019 211.452 74.668 C 211.832 75.318 212.064 75.791 212.578 76.606 C 213.093 77.423 213.407 77.927 214.026 78.751 C 214.64 79.574 214.986 80.024 215.663 80.721 C 216.34 81.417 216.703 81.742 217.408 82.233 C 218.108 82.721 218.472 82.919 219.18 83.169 C 219.888 83.42 220.248 83.507 220.949 83.491 C 221.649 83.475 222.024 83.395 222.674 83.086 C 223.325 82.779 223.637 82.531 224.199 81.956 C 224.756 81.383 225.015 80.996 225.472 80.209 C 225.929 79.42 226.157 78.906 226.477 78.023 C 226.802 77.136 226.982 76.514 227.09 75.782 C 227.198 75.051 227.093 74.633 227.023 74.367 C 226.954 74.099 226.78 74.142 226.736 74.448 C 226.69 74.75 226.645 75.151 226.812 75.879 C 226.977 76.606 227.144 77.203 227.573 78.077 C 228.003 78.952 228.382 79.466 228.955 80.253 C 229.527 81.042 229.855 81.409 230.44 82.009 C 231.024 82.613 231.32 82.875 231.868 83.259 C 232.418 83.642 232.735 83.777 233.184 83.919 C 233.63 84.059 233.818 84.013 234.105 83.959 C 234.391 83.909 234.524 83.801 234.608 83.656 C 234.694 83.51 234.611 83.344 234.531 83.227 C 234.453 83.111 234.364 83.177 234.209 83.072 C 234.059 82.969 234.043 82.911 233.76 82.702 C 233.481 82.497 233.219 82.396 232.8 82.04 C 232.388 81.684 232.124 81.483 231.682 80.917 C 231.238 80.353 230.997 79.984 230.586 79.219 C 230.176 78.453 230.023 77.906 229.628 77.079 C 229.23 76.253 229.035 75.729 228.602 75.09 C 228.168 74.452 227.925 74.132 227.465 73.886 C 227.009 73.646 226.745 73.615 226.312 73.879 C 225.879 74.142 225.638 74.517 225.294 75.21 C 224.949 75.899 224.88 76.514 224.586 77.338 C 224.292 78.163 224.155 78.635 223.824 79.331 C 223.492 80.031 223.289 80.353 222.919 80.833 C 222.551 81.316 222.372 81.501 221.969 81.745 C 221.571 81.992 221.371 82.046 220.917 82.055 C 220.468 82.064 220.226 82.005 219.714 81.784 C 219.199 81.563 218.909 81.405 218.356 80.956 C 217.802 80.511 217.501 80.213 216.943 79.556 C 216.386 78.894 216.105 78.465 215.57 77.659 C 215.037 76.854 214.795 76.343 214.278 75.528 C 213.755 74.711 213.523 74.231 212.962 73.577 C 212.405 72.924 212.098 72.591 211.475 72.262 C 210.857 71.932 210.501 71.835 209.854 71.932 C 209.204 72.033 208.856 72.222 208.241 72.749 C 207.63 73.275 207.327 73.727 206.791 74.568 C 206.256 75.411 205.993 76.015 205.56 76.955 C 205.129 77.895 204.94 78.479 204.634 79.272 C 204.329 80.062 204.252 80.457 204.03 80.91 C 203.806 81.362 203.786 81.486 203.528 81.529 C 203.268 81.572 203.145 81.467 202.734 81.114 C 202.324 80.761 202.058 80.473 201.476 79.764 C 200.896 79.052 200.521 78.624 199.832 77.563 C 199.14 76.506 198.738 75.868 198.025 74.466 C 197.309 73.066 196.911 72.238 196.269 70.565 C 195.626 68.894 195.297 67.896 194.813 66.113 C 194.334 64.325 194.112 63.288 193.865 61.643 C 193.617 59.998 193.633 59.119 193.579 57.885 C 193.528 56.651 193.567 56.137 193.606 55.467 C 193.645 54.794 193.614 54.651 193.769 54.527 C 193.927 54.399 194.021 54.511 194.383 54.837 C 194.743 55.162 195.026 55.451 195.58 56.147 C 196.134 56.844 196.524 57.286 197.147 58.327 C 197.77 59.367 198.146 60.01 198.687 61.361 C 199.228 62.711 199.515 63.525 199.85 65.083 C 200.193 66.642 200.335 67.524 200.373 69.159 C 200.413 70.79 200.355 71.673 200.041 73.249 C 199.723 74.82 199.492 75.612 198.8 77.024 C 198.107 78.438 197.67 79.102 196.578 80.306 C 195.487 81.513 194.794 82.068 193.347 83.046 C 191.899 84.02 191.056 84.47 189.345 85.194 C 187.635 85.916 186.648 86.222 184.791 86.656 C 182.938 87.09 181.888 87.24 180.063 87.36 C 178.236 87.481 177.254 87.453 175.666 87.252 C 174.084 87.047 173.275 86.838 172.134 86.334 C 170.993 85.835 170.56 85.519 169.959 84.737 C 169.363 83.954 169.194 83.51 169.154 82.427 C 169.112 81.346 169.244 80.638 169.75 79.331 C 170.262 78.023 170.745 77.191 171.697 75.891 C 172.653 74.587 173.353 73.847 174.517 72.818 C 175.686 71.789 176.395 71.321 177.529 70.736 C 178.666 70.152 179.294 70.141 180.194 69.905 C 181.095 69.669 181.441 69.664 182.044 69.547 C 182.644 69.433 182.954 69.506 183.206 69.324 C 183.455 69.142 183.534 68.894 183.301 68.642" />
  <path d="M 228.316 60.597 C 228.717 59.838 228.521 60.037 228.309 60.336 C 228.104 60.623 227.6 61.675 227.285 62.06 C 226.963 62.431 227.026 61.848 226.728 62.248 C 226.407 62.643 225.823 63.685 225.726 64.055 C 225.647 64.44 225.789 64.825 226.31 64.132 C 226.831 63.446 227.921 61.357 228.316 60.597" />
  <path d="M 243.271 69.591 C 243.056 69.795 242.927 70.014 242.838 70.62 C 242.749 71.227 242.695 71.689 242.823 72.621 C 242.955 73.554 243.081 74.227 243.489 75.287 C 243.89 76.348 244.2 76.962 244.846 77.927 C 245.49 78.89 245.888 79.374 246.711 80.108 C 247.537 80.844 248.016 81.149 248.968 81.603 C 249.916 82.059 250.438 82.206 251.46 82.38 C 252.485 82.551 253.039 82.577 254.084 82.457 C 255.129 82.338 255.693 82.198 256.68 81.78 C 257.671 81.362 258.173 81.057 259.021 80.368 C 259.873 79.675 260.278 79.223 260.929 78.328 C 261.579 77.438 261.869 76.875 262.28 75.91 C 262.686 74.947 262.836 74.374 262.977 73.519 C 263.111 72.664 263.102 72.183 262.96 71.634 C 262.817 71.085 262.566 70.849 262.256 70.767 C 261.947 70.686 261.637 70.81 261.414 71.237 C 261.188 71.659 261.061 72.079 261.133 72.88 C 261.204 73.682 261.351 74.258 261.773 75.233 C 262.194 76.207 262.554 76.776 263.236 77.748 C 263.92 78.72 264.342 79.223 265.186 80.09 C 266.03 80.956 266.485 81.447 267.457 82.079 C 268.427 82.705 269.434 83.136 270.038 83.227 C 270.641 83.321 270.792 83.031 270.476 82.538 C 270.157 82.046 269.256 81.494 268.447 80.776 C 267.638 80.051 267.155 79.733 266.427 78.924 C 265.704 78.116 265.351 77.628 264.817 76.723 C 264.287 75.82 264.109 75.261 263.773 74.405 C 263.436 73.55 263.371 73.082 263.135 72.447 C 262.894 71.812 262.797 71.53 262.573 71.232 C 262.344 70.934 262.191 70.872 261.996 70.952 C 261.808 71.035 261.749 71.197 261.61 71.642 C 261.471 72.088 261.498 72.454 261.309 73.172 C 261.115 73.886 261.01 74.385 260.654 75.213 C 260.295 76.042 260.054 76.545 259.513 77.311 C 258.966 78.08 258.638 78.473 257.941 79.056 C 257.241 79.636 256.83 79.881 256.018 80.232 C 255.21 80.581 254.745 80.693 253.887 80.801 C 253.027 80.91 252.562 80.901 251.72 80.776 C 250.876 80.642 250.438 80.534 249.664 80.159 C 248.887 79.78 248.496 79.533 247.846 78.894 C 247.196 78.255 246.89 77.822 246.414 76.962 C 245.934 76.1 245.765 75.534 245.454 74.587 C 245.141 73.634 245.07 73.031 244.85 72.215 C 244.626 71.395 244.522 71.015 244.336 70.492 C 244.147 69.967 244.126 69.772 243.914 69.596 C 243.702 69.413 243.485 69.385 243.271 69.591" />
</svg>