<?xml version="1.0" encoding="utf-8"?>
<svg viewBox="465.208 458.765 569.808 143.524" width="569.808px" height="143.524px" xmlns="http://www.w3.org/2000/svg">
  <path d="M 648.226 543.47 C 648.504 544.203 649.003 544.753 650.194 545.331 C 651.385 545.909 652.298 545.836 654.179 546.361 C 656.06 546.891 657.363 547.216 659.592 547.975 C 661.823 548.732 663.087 549.185 665.332 550.152 C 667.583 551.125 668.787 551.668 670.829 552.82 C 672.865 553.967 673.866 554.608 675.522 555.901 C 677.18 557.194 677.953 557.899 679.114 559.283 C 680.271 560.668 680.684 561.402 681.321 562.821 C 681.957 564.241 682.123 564.989 682.298 566.378 C 682.468 567.764 682.423 568.371 682.171 569.761 C 681.924 571.145 681.646 571.86 681.04 573.309 C 680.432 574.757 679.99 575.587 679.134 577.006 C 678.278 578.421 677.74 579.136 676.768 580.399 C 675.795 581.663 675.168 582.201 674.279 583.324 C 673.395 584.446 672.953 584.966 672.33 586.001 C 671.707 587.033 671.426 587.48 671.178 588.49 C 670.925 589.501 670.862 590.05 671.072 591.051 C 671.28 592.052 671.523 592.645 672.233 593.501 C 672.938 594.351 673.428 594.779 674.599 595.318 C 675.771 595.862 676.524 596.008 678.084 596.212 C 679.639 596.421 680.577 596.309 682.39 596.348 C 684.202 596.382 685.198 596.402 687.143 596.402 C 689.082 596.402 690.156 596.402 692.105 596.358 C 694.048 596.309 695.054 596.266 696.876 596.163 C 698.699 596.061 699.656 596.081 701.206 595.853 C 702.757 595.619 703.534 595.43 704.628 594.998 C 705.717 594.569 706.081 594.225 706.674 593.695 C 707.262 593.165 707.51 592.869 707.577 592.364 C 707.647 591.853 707.408 591.445 707.015 591.153 C 706.62 590.862 706.313 590.935 705.609 590.9 C 704.905 590.862 704.526 590.814 703.496 590.978 C 702.47 591.144 701.858 591.431 700.468 591.722 C 699.078 592.018 698.237 592.246 696.551 592.455 C 694.861 592.66 693.878 592.723 692.022 592.762 C 690.165 592.801 689.111 592.777 687.269 592.65 C 685.422 592.523 684.446 592.436 682.798 592.136 C 681.155 591.839 680.338 591.488 679.032 591.153 C 677.724 590.823 677.147 590.633 676.257 590.473 C 675.368 590.312 675.038 590.367 674.59 590.357 C 674.148 590.346 674.051 590.502 674.031 590.419 C 674.012 590.336 674.128 590.336 674.493 589.948 C 674.857 589.559 675.188 589.262 675.849 588.471 C 676.51 587.679 676.957 587.145 677.793 585.998 C 678.632 584.851 679.095 584.141 680.033 582.737 C 680.97 581.327 681.573 580.558 682.483 578.96 C 683.391 577.366 683.896 576.468 684.577 574.746 C 685.262 573.027 685.631 572.141 685.894 570.363 C 686.156 568.58 686.195 567.642 685.89 565.839 C 685.582 564.036 685.247 563.059 684.358 561.344 C 683.464 559.623 682.847 558.793 681.428 557.246 C 680.008 555.702 679.105 554.983 677.253 553.616 C 675.407 552.251 674.328 551.634 672.18 550.42 C 670.036 549.209 668.802 548.646 666.523 547.552 C 664.239 546.454 662.99 545.909 660.769 544.942 C 658.543 543.976 657.26 543.45 655.404 542.721 C 653.543 541.992 652.784 541.516 651.468 541.302 C 650.155 541.089 649.475 541.22 648.824 541.652 C 648.177 542.085 647.953 542.731 648.226 543.47" style="stroke: currentColor; fill: currentColor;"/>
  <path d="M 665.386 568.871 C 665.818 569.376 666.168 569.499 667.198 569.615 C 668.228 569.732 668.808 569.654 670.537 569.45 C 672.262 569.251 673.413 568.906 675.844 568.604 C 678.269 568.303 679.824 568.23 682.676 567.948 C 685.529 567.661 687.138 567.502 690.098 567.185 C 693.061 566.87 694.637 566.704 697.49 566.368 C 700.347 566.033 701.786 565.878 704.38 565.508 C 706.97 565.135 708.219 564.964 710.455 564.512 C 712.685 564.061 713.88 563.769 715.543 563.258 C 717.201 562.743 717.793 562.529 718.756 561.942 C 719.718 561.349 719.955 560.886 720.354 560.304 C 720.753 559.726 720.826 559.449 720.748 559.025 C 720.669 558.608 720.33 558.345 719.96 558.205 C 719.591 558.059 719.465 558.195 718.906 558.307 C 718.348 558.418 718.079 558.418 717.175 558.759 C 716.267 559.098 715.859 559.391 714.376 559.997 C 712.899 560.605 711.859 561.17 709.779 561.791 C 707.699 562.408 706.498 562.637 703.986 563.089 C 701.474 563.545 700.035 563.715 697.212 564.065 C 694.388 564.41 692.814 564.576 689.874 564.828 C 686.929 565.076 685.339 565.207 682.496 565.315 C 679.649 565.427 678.103 565.382 675.649 565.378 C 673.195 565.367 672.014 565.222 670.226 565.28 C 668.443 565.339 667.762 565.3 666.723 565.659 C 665.682 566.024 665.298 566.456 665.032 567.098 C 664.764 567.739 664.954 568.371 665.386 568.871" style="stroke: currentColor; fill: currentColor;"/>
  <path d="M 719.302 530.937 C 718.836 531.472 718.524 531.895 718.636 533.353 C 718.752 534.81 719.229 535.724 719.88 538.231 C 720.536 540.739 721.076 542.499 721.917 545.886 C 722.757 549.277 723.238 551.446 724.089 555.183 C 724.934 558.92 725.381 561.009 726.158 564.562 C 726.941 568.12 727.32 569.878 727.991 572.954 C 728.667 576.035 728.959 577.488 729.526 579.957 C 730.095 582.425 730.119 583.602 730.824 585.303 C 731.534 587.003 731.947 587.743 733.05 588.462 C 734.158 589.175 735.091 589.287 736.36 588.879 C 737.628 588.476 738.265 587.849 739.392 586.434 C 740.524 585.016 740.801 583.767 742.002 581.798 C 743.201 579.835 743.887 578.519 745.388 576.609 C 746.891 574.694 747.848 573.63 749.505 572.24 C 751.167 570.845 752.139 570.271 753.68 569.65 C 755.22 569.022 755.92 568.994 757.208 569.121 C 758.496 569.246 758.991 569.503 760.124 570.286 C 761.256 571.064 761.801 571.651 762.864 573.017 C 763.929 574.388 764.459 575.36 765.445 577.133 C 766.432 578.907 766.849 580.001 767.798 581.886 C 768.745 583.777 769.148 584.817 770.178 586.571 C 771.209 588.321 771.709 589.2 772.944 590.639 C 774.177 592.077 774.848 592.772 776.345 593.763 C 777.838 594.75 778.956 595.211 780.412 595.586 C 781.876 595.96 782.571 595.834 783.65 595.634 C 784.729 595.435 785.385 595.124 785.803 594.6 C 786.22 594.07 786.109 593.496 785.739 593 C 785.374 592.505 784.781 592.485 783.965 592.116 C 783.145 591.752 782.784 591.519 781.652 591.164 C 780.52 590.814 779.523 590.93 778.299 590.357 C 777.079 589.789 776.593 589.399 775.539 588.301 C 774.484 587.203 773.989 586.434 773.027 584.861 C 772.059 583.286 771.641 582.3 770.713 580.428 C 769.785 578.562 769.405 577.435 768.385 575.53 C 767.359 573.62 766.869 572.517 765.596 570.889 C 764.322 569.261 763.638 568.39 762.01 567.379 C 760.381 566.369 759.355 565.936 757.456 565.824 C 755.555 565.712 754.467 565.985 752.503 566.822 C 750.54 567.657 749.53 568.425 747.634 569.995 C 745.744 571.564 744.756 572.697 743.047 574.665 C 741.331 576.634 740.471 577.95 739.081 579.831 C 737.686 581.711 736.908 582.746 736.083 584.073 C 735.256 585.4 735.213 585.974 734.95 586.46 C 734.683 586.95 734.999 586.979 734.75 586.513 C 734.498 586.047 734.275 585.56 733.686 584.122 C 733.104 582.688 732.569 581.653 731.821 579.326 C 731.072 577.003 730.708 575.53 729.94 572.497 C 729.177 569.464 728.784 567.706 728.001 564.157 C 727.214 560.61 726.782 558.521 726.023 554.765 C 725.265 551.013 724.852 548.816 724.21 545.39 C 723.568 541.959 723.195 540.156 722.811 537.629 C 722.427 535.097 722.66 534.12 722.291 532.731 C 721.926 531.345 721.571 531.049 720.973 530.695 C 720.376 530.334 719.769 530.403 719.302 530.937" style="stroke: currentColor; fill: currentColor;"/>
  <path d="M 818.693 571.618 C 818.878 570.811 818.791 569.873 817.988 568.799 C 817.191 567.725 816.38 566.976 814.698 566.248 C 813.021 565.519 811.802 565.155 809.596 565.15 C 807.389 565.15 806.107 565.427 803.667 566.238 C 801.228 567.049 799.799 567.715 797.393 569.212 C 794.987 570.704 793.602 571.729 791.63 573.708 C 789.656 575.68 788.645 576.905 787.522 579.082 C 786.4 581.26 785.982 582.533 786.021 584.588 C 786.06 586.645 786.502 587.834 787.712 589.36 C 788.926 590.891 790.073 591.495 792.081 592.223 C 794.088 592.951 795.391 593.035 797.747 593.011 C 800.105 592.986 801.446 592.743 803.866 592.096 C 806.292 591.456 807.618 590.964 809.862 589.783 C 812.104 588.603 813.226 587.786 815.078 586.188 C 816.929 584.594 817.759 583.544 819.125 581.798 C 820.486 580.05 821.342 579.029 821.901 577.455 C 822.46 575.88 822.304 574.709 821.915 573.932 C 821.526 573.154 820.545 573.056 819.956 573.571 C 819.363 574.086 818.785 575.078 818.966 576.501 C 819.145 577.931 819.767 578.941 820.851 580.706 C 821.94 582.47 822.757 583.641 824.403 585.332 C 826.055 587.023 827.1 587.903 829.098 589.162 C 831.099 590.415 832.179 590.872 834.405 591.611 C 836.63 592.349 837.865 592.617 840.231 592.86 C 842.598 593.102 843.906 593.102 846.233 592.826 C 848.566 592.543 849.712 592.238 851.87 591.465 C 854.032 590.691 855.121 590.153 857.046 588.957 C 858.965 587.761 859.908 587.003 861.482 585.483 C 863.057 583.962 863.752 583.009 864.924 581.348 C 866.09 579.684 866.727 578.791 867.32 577.178 C 867.913 575.568 868.087 574.641 867.883 573.294 C 867.678 571.948 867.236 571.2 866.298 570.437 C 865.356 569.675 864.501 569.368 863.183 569.479 C 861.862 569.591 860.851 569.917 859.7 570.991 C 858.548 572.06 857.979 573.09 857.43 574.845 C 856.881 576.594 856.725 577.799 856.944 579.748 C 857.163 581.696 857.469 582.839 858.533 584.588 C 859.592 586.343 860.423 587.217 862.259 588.505 C 864.098 589.793 865.302 590.304 867.713 591.038 C 870.123 591.771 871.586 591.976 874.312 592.174 C 877.039 592.369 878.584 592.325 881.344 592.024 C 884.105 591.723 885.592 591.426 888.109 590.667 C 890.626 589.914 891.909 589.443 893.931 588.243 C 895.948 587.042 896.968 586.328 898.212 584.666 C 899.457 583.004 900.011 581.892 900.142 579.928 C 900.274 577.969 899.967 576.716 898.868 574.865 C 897.77 573.008 896.808 572.06 894.65 570.665 C 892.497 569.266 891.011 568.673 888.09 567.881 C 885.174 567.094 883.341 566.87 880.061 566.724 C 876.782 566.578 874.852 566.719 871.698 567.157 C 868.544 567.594 866.766 567.987 864.296 568.916 C 861.823 569.844 860.72 570.646 859.345 571.797 C 857.974 572.945 857.615 573.893 857.439 574.66 C 857.26 575.427 857.756 575.788 858.455 575.642 C 859.155 575.5 859.592 574.821 860.943 573.945 C 862.294 573.071 862.999 572.172 865.215 571.263 C 867.432 570.354 869.078 569.859 872.028 569.402 C 874.973 568.949 876.873 568.824 879.949 568.998 C 883.021 569.173 884.781 569.475 887.404 570.281 C 890.029 571.083 891.316 571.784 893.066 573.017 C 894.816 574.252 895.374 575.117 896.142 576.453 C 896.91 577.794 896.983 578.441 896.901 579.714 C 896.818 580.992 896.623 581.609 895.734 582.839 C 894.85 584.064 894.14 584.783 892.459 585.847 C 890.783 586.916 889.616 587.446 887.341 588.17 C 885.062 588.894 883.629 589.2 881.072 589.467 C 878.512 589.735 877.029 589.744 874.536 589.501 C 872.047 589.259 870.687 588.982 868.617 588.258 C 866.547 587.538 865.569 586.979 864.194 585.891 C 862.819 584.802 862.347 584.078 861.74 582.815 C 861.138 581.546 861.089 580.807 861.172 579.563 C 861.249 578.319 861.663 577.629 862.149 576.594 C 862.63 575.564 863.149 575.136 863.587 574.392 C 864.029 573.648 864.171 573.275 864.35 572.871 C 864.525 572.464 864.51 572.278 864.481 572.371 C 864.447 572.464 864.379 572.634 864.189 573.318 C 864 574.009 863.961 574.577 863.529 575.812 C 863.097 577.046 862.883 577.999 862.027 579.491 C 861.172 580.982 860.569 581.881 859.252 583.267 C 857.935 584.657 857.118 585.342 855.442 586.434 C 853.766 587.524 852.789 588.015 850.88 588.715 C 848.964 589.414 847.954 589.686 845.882 589.94 C 843.812 590.197 842.632 590.201 840.523 589.988 C 838.414 589.774 837.282 589.54 835.338 588.866 C 833.389 588.185 832.451 587.767 830.789 586.606 C 829.127 585.444 828.222 584.637 827.027 583.054 C 825.831 581.468 825.458 580.307 824.817 578.683 C 824.179 577.06 824.476 576.074 823.825 574.937 C 823.178 573.799 822.464 573.314 821.584 573.003 C 820.705 572.692 820.126 572.789 819.436 573.382 C 818.746 573.975 818.703 574.65 818.124 575.972 C 817.546 577.294 817.531 578.378 816.54 579.996 C 815.554 581.609 814.781 582.596 813.187 584.058 C 811.593 585.517 810.567 586.255 808.561 587.295 C 806.553 588.336 805.309 588.743 803.147 589.253 C 800.989 589.764 799.745 589.88 797.752 589.852 C 795.76 589.822 794.69 589.618 793.18 589.108 C 791.667 588.598 791.022 588.209 790.19 587.29 C 789.36 586.372 789.068 585.91 789.029 584.521 C 788.99 583.13 789.102 582.129 790 580.341 C 790.895 578.553 791.745 577.343 793.506 575.578 C 795.264 573.814 796.586 572.819 798.792 571.521 C 800.994 570.229 802.408 569.65 804.526 569.1 C 806.64 568.547 807.729 568.523 809.372 568.76 C 811.014 568.994 811.617 569.636 812.74 570.271 C 813.867 570.908 814.14 571.423 815.005 571.938 C 815.869 572.449 816.331 572.891 817.07 572.827 C 817.808 572.764 818.509 572.419 818.693 571.618" style="stroke: currentColor; fill: currentColor;"/>
  <path d="M 512.293 494.869 C 512.013 493.972 511.359 493.107 509.866 492.321 C 508.374 491.535 507.182 491.182 504.834 490.939 C 502.482 490.696 500.894 490.501 498.114 491.108 C 495.335 491.72 493.815 492.337 490.93 493.993 C 488.05 495.655 486.394 496.863 483.698 499.395 C 481.008 501.926 479.484 503.651 477.479 506.658 C 475.47 509.67 474.547 511.474 473.661 514.454 C 472.774 517.429 472.579 519.054 473.038 521.543 C 473.497 524.038 474.235 525.294 475.955 526.924 C 477.669 528.548 479.109 529.102 481.62 529.677 C 484.136 530.252 485.713 530.204 488.514 529.798 C 491.32 529.397 492.861 528.886 495.63 527.651 C 498.394 526.417 499.866 525.557 502.355 523.627 C 504.85 521.691 506.095 520.436 508.089 517.988 C 510.077 515.546 510.953 514.006 512.309 511.405 C 513.664 508.805 514.255 507.275 514.867 504.991 C 515.479 502.702 515.785 501.367 515.363 499.969 C 514.946 498.577 513.881 497.96 512.773 498.018 C 511.67 498.076 510.383 498.698 509.845 500.254 C 509.307 501.816 509.613 503.398 510.083 505.819 C 510.552 508.246 511.027 509.817 512.193 512.381 C 513.358 514.945 514.16 516.406 515.911 518.637 C 517.657 520.868 518.728 521.934 520.933 523.521 C 523.133 525.114 524.425 525.742 526.925 526.586 C 529.425 527.43 530.813 527.694 533.418 527.741 C 536.029 527.794 537.432 527.636 539.975 526.839 C 542.523 526.037 543.81 525.436 546.146 523.753 C 548.483 522.071 549.617 520.974 551.658 518.421 C 553.694 515.868 554.686 514.285 556.342 510.983 C 557.993 507.676 558.758 505.698 559.929 501.884 C 561.095 498.076 561.591 495.855 562.182 491.92 C 562.772 487.98 562.92 485.807 562.878 482.199 C 562.836 478.586 562.609 476.792 561.976 473.865 C 561.338 470.942 560.905 469.608 559.702 467.582 C 558.495 465.557 557.714 464.491 555.947 463.742 C 554.174 462.993 552.65 462.956 550.851 463.843 C 549.053 464.723 548.188 465.831 546.953 468.157 C 545.719 470.489 545.244 472.113 544.685 475.484 C 544.126 478.849 543.963 481.033 544.147 485 C 544.337 488.972 544.596 491.34 545.624 495.328 C 546.653 499.31 547.423 501.431 549.301 504.922 C 551.178 508.42 552.434 510.081 555.008 512.803 C 557.582 515.525 559.106 516.675 562.171 518.531 C 565.236 520.388 566.987 521.095 570.342 522.092 C 573.696 523.083 575.543 523.368 578.945 523.511 C 582.347 523.648 584.13 523.474 587.358 522.788 C 590.591 522.102 592.237 521.501 595.101 520.087 C 597.971 518.679 599.39 517.703 601.695 515.736 C 604.005 513.763 605.081 512.523 606.632 510.234 C 608.188 507.945 608.832 506.616 609.47 504.295 C 610.113 501.979 610.266 500.692 609.844 498.645 C 609.428 496.594 608.821 495.396 607.376 494.046 C 605.93 492.696 604.659 492.168 602.618 491.889 C 600.582 491.604 599.247 491.815 597.19 492.632 C 595.128 493.45 593.941 494.241 592.316 495.976 C 590.697 497.712 589.858 498.978 589.078 501.299 C 588.292 503.625 588.028 505.118 588.402 507.591 C 588.777 510.071 589.326 511.505 590.955 513.684 C 592.591 515.862 593.83 516.87 596.568 518.473 C 599.305 520.077 601.046 520.731 604.638 521.712 C 608.23 522.693 610.409 523.031 614.534 523.379 C 618.658 523.732 621.059 523.711 625.268 523.474 C 629.482 523.236 631.671 522.936 635.596 522.197 C 639.52 521.464 641.488 520.921 644.895 519.797 C 648.303 518.674 649.975 517.999 652.639 516.574 C 655.308 515.156 656.378 514.322 658.235 512.697 C 660.097 511.078 660.772 510.218 661.938 508.478 C 663.098 506.732 663.468 505.724 664.053 503.978 C 664.639 502.238 664.739 501.177 664.865 499.758 C 664.987 498.34 664.807 497.78 664.67 496.889 C 664.533 495.998 664.364 495.813 664.174 495.307 C 663.99 494.8 664.069 494.652 663.726 494.362 C 663.383 494.078 662.951 493.787 662.465 493.867 C 661.975 493.94 661.695 494.178 661.294 494.737 C 660.899 495.296 660.709 495.729 660.472 496.657 C 660.234 497.585 660.192 498.113 660.102 499.379 C 660.013 500.645 660.234 501.499 660.023 502.981 C 659.807 504.464 659.775 505.255 659.032 506.79 C 658.293 508.319 657.829 509.111 656.315 510.651 C 654.801 512.191 653.889 513.056 651.468 514.486 C 649.052 515.92 647.459 516.648 644.209 517.803 C 640.965 518.964 639.035 519.528 635.227 520.272 C 631.418 521.016 629.266 521.311 625.168 521.522 C 621.064 521.733 618.706 521.728 614.724 521.322 C 610.746 520.921 608.626 520.53 605.266 519.512 C 601.906 518.5 600.308 517.761 597.923 516.247 C 595.544 514.734 594.606 513.763 593.361 511.948 C 592.111 510.134 591.863 509.058 591.683 507.175 C 591.504 505.292 591.778 504.231 592.464 502.533 C 593.144 500.835 593.851 499.885 595.091 498.677 C 596.336 497.464 597.269 496.994 598.672 496.478 C 600.075 495.961 600.893 495.966 602.101 496.082 C 603.304 496.203 603.852 496.398 604.691 497.074 C 605.53 497.744 605.952 498.16 606.289 499.447 C 606.621 500.734 606.769 501.668 606.363 503.514 C 605.957 505.36 605.535 506.631 604.258 508.689 C 602.987 510.746 602.043 511.948 599.996 513.795 C 597.95 515.641 596.642 516.58 594.015 517.919 C 591.393 519.265 589.864 519.845 586.867 520.515 C 583.866 521.179 582.21 521.359 579.029 521.253 C 575.849 521.153 574.108 520.905 570.954 520.003 C 567.794 519.101 566.138 518.463 563.242 516.743 C 560.346 515.029 558.901 513.974 556.464 511.421 C 554.027 508.873 552.819 507.307 551.047 503.989 C 549.28 500.671 548.541 498.64 547.618 494.827 C 546.695 491.013 546.484 488.697 546.431 484.931 C 546.378 481.165 546.669 479.034 547.344 475.99 C 548.014 472.952 548.752 471.512 549.791 469.724 C 550.83 467.936 551.574 467.604 552.529 467.044 C 553.484 466.485 553.631 466.512 554.56 466.934 C 555.493 467.356 556.179 467.656 557.181 469.16 C 558.189 470.663 558.869 471.829 559.576 474.445 C 560.277 477.066 560.589 478.812 560.705 482.246 C 560.815 485.68 560.694 487.811 560.14 491.614 C 559.581 495.417 559.08 497.596 557.92 501.262 C 556.759 504.928 555.968 506.832 554.327 509.949 C 552.692 513.067 551.68 514.528 549.728 516.838 C 547.781 519.154 546.695 520.072 544.574 521.506 C 542.454 522.946 541.346 523.384 539.126 524.033 C 536.905 524.682 535.734 524.798 533.482 524.745 C 531.229 524.692 530.032 524.497 527.869 523.78 C 525.701 523.062 524.562 522.54 522.658 521.148 C 520.754 519.755 519.783 518.827 518.343 516.807 C 516.903 514.792 516.254 513.394 515.452 511.068 C 514.645 508.741 514.535 507.243 514.313 505.176 C 514.097 503.103 514.624 501.953 514.366 500.718 C 514.113 499.479 513.543 499.104 513.047 498.994 C 512.551 498.883 512.182 499.11 511.892 500.149 C 511.597 501.193 512.003 502.195 511.586 504.2 C 511.169 506.204 510.9 507.744 509.798 510.176 C 508.69 512.608 507.862 514.079 506.058 516.353 C 504.249 518.632 503.067 519.797 500.762 521.549 C 498.452 523.294 497.054 524.049 494.527 525.104 C 491.996 526.164 490.561 526.523 488.113 526.834 C 485.666 527.145 484.316 527.076 482.285 526.654 C 480.254 526.233 479.262 525.847 477.949 524.724 C 476.635 523.6 476.087 522.952 475.707 521.037 C 475.327 519.122 475.306 517.767 476.05 515.15 C 476.799 512.539 477.59 510.772 479.447 507.971 C 481.304 505.165 482.775 503.477 485.323 501.146 C 487.876 498.809 489.522 497.68 492.191 496.293 C 494.86 494.911 496.258 494.526 498.663 494.225 C 501.068 493.919 502.313 494.336 504.217 494.774 C 506.121 495.217 506.775 496.013 508.184 496.42 C 509.597 496.826 510.447 497.111 511.27 496.799 C 512.092 496.488 512.572 495.76 512.293 494.869" style="stroke: currentColor; fill: currentColor;"/>
  <path d="M 634.551 502.77 C 634.857 503.504 635.258 503.862 636.535 504.49 C 637.806 505.118 638.74 505.097 640.918 505.919 C 643.102 506.737 644.589 507.312 647.432 508.588 C 650.281 509.865 651.963 510.762 655.149 512.307 C 658.33 513.847 660.081 514.755 663.346 516.305 C 666.611 517.856 668.283 518.658 671.475 520.061 C 674.661 521.464 676.285 522.16 679.281 523.316 C 682.283 524.465 683.765 524.993 686.46 525.821 C 689.161 526.644 690.443 526.966 692.774 527.43 C 695.106 527.894 696.303 528.131 698.128 528.147 C 699.948 528.163 700.755 527.947 701.889 527.514 C 703.018 527.082 703.487 526.57 703.777 525.979 C 704.073 525.389 703.841 524.914 703.35 524.566 C 702.854 524.212 702.369 524.281 701.319 524.228 C 700.27 524.17 699.726 524.249 698.107 524.281 C 696.488 524.312 695.406 524.587 693.217 524.392 C 691.028 524.191 689.783 523.959 687.162 523.3 C 684.54 522.646 683.063 522.16 680.099 521.105 C 677.14 520.045 675.52 519.381 672.366 518.014 C 669.212 516.654 667.545 515.857 664.327 514.275 C 661.105 512.697 659.38 511.774 656.268 510.108 C 653.15 508.441 651.515 507.46 648.751 505.946 C 645.987 504.432 644.589 503.657 642.442 502.533 C 640.29 501.409 639.483 500.66 637.996 500.323 C 636.514 499.98 635.712 500.349 635.021 500.84 C 634.335 501.33 634.251 502.042 634.551 502.77" style="stroke: currentColor; fill: currentColor;"/>
  <path d="M 734.482 498.466 C 734.276 497.564 733.749 496.599 732.372 495.871 C 731 495.138 729.798 494.863 727.614 494.816 C 725.43 494.769 723.953 494.816 721.453 495.639 C 718.953 496.462 717.581 497.274 715.113 498.93 C 712.649 500.587 711.252 501.737 709.126 503.91 C 707 506.088 705.85 507.433 704.474 509.812 C 703.097 512.191 702.469 513.52 702.248 515.799 C 702.026 518.072 702.279 519.439 703.376 521.195 C 704.474 522.957 705.639 523.711 707.728 524.592 C 709.822 525.473 711.246 525.594 713.836 525.594 C 716.421 525.6 717.93 525.32 720.662 524.603 C 723.394 523.885 724.892 523.321 727.487 522.013 C 730.083 520.705 731.465 519.855 733.638 518.057 C 735.811 516.258 736.797 515.045 738.348 513.014 C 739.899 510.978 740.674 509.802 741.392 507.897 C 742.109 505.988 742.336 504.722 741.94 503.477 C 741.539 502.227 740.395 501.562 739.403 501.657 C 738.411 501.752 737.388 502.57 736.971 503.941 C 736.56 505.308 736.702 506.558 737.335 508.499 C 737.963 510.44 738.717 511.706 740.131 513.647 C 741.545 515.583 742.531 516.643 744.393 518.188 C 746.255 519.734 747.363 520.399 749.441 521.38 C 751.519 522.356 752.648 522.709 754.779 523.083 C 756.915 523.463 758.065 523.542 760.101 523.268 C 762.137 522.994 763.219 522.683 764.965 521.717 C 766.711 520.757 767.491 519.992 768.826 518.458 C 770.166 516.917 770.682 515.889 771.648 514.021 C 772.613 512.154 773.04 510.952 773.663 509.116 C 774.28 507.286 774.744 506.072 774.749 504.854 C 774.755 503.641 774.053 503.071 773.694 503.039 C 773.336 503.013 772.824 503.646 772.956 504.706 C 773.093 505.766 773.483 506.721 774.364 508.341 C 775.24 509.955 776.01 511.104 777.355 512.787 C 778.695 514.47 779.491 515.456 781.079 516.754 C 782.661 518.057 783.526 518.61 785.278 519.286 C 787.029 519.956 787.999 520.167 789.819 520.114 C 791.639 520.061 792.625 519.792 794.377 519.022 C 796.133 518.257 796.945 517.582 798.581 516.279 C 800.216 514.971 800.997 514.032 802.553 512.502 C 804.114 510.973 804.931 509.986 806.377 508.631 C 807.827 507.275 808.645 506.584 809.795 505.719 C 810.939 504.849 811.298 504.464 812.11 504.295 C 812.928 504.121 813.044 504.316 813.862 504.854 C 814.679 505.392 815.075 505.93 816.204 506.98 C 817.327 508.035 818.039 508.784 819.5 510.118 C 820.961 511.453 821.805 512.302 823.504 513.657 C 825.208 515.008 826.12 515.715 827.998 516.87 C 829.876 518.025 830.857 518.558 832.888 519.444 C 834.924 520.325 836.068 520.789 838.168 521.29 C 840.272 521.796 841.628 522.013 843.395 521.955 C 845.167 521.897 846.28 521.591 847.008 521.01 C 847.741 520.436 847.715 519.671 847.05 519.059 C 846.391 518.452 845.315 518.283 843.706 517.962 C 842.097 517.645 840.895 517.846 839.017 517.471 C 837.139 517.091 836.126 516.822 834.317 516.073 C 832.513 515.33 831.643 514.823 829.987 513.742 C 828.33 512.655 827.534 511.991 826.041 510.651 C 824.548 509.311 823.873 508.462 822.533 507.038 C 821.194 505.613 820.703 504.733 819.347 503.525 C 817.987 502.317 817.306 501.61 815.729 500.993 C 814.152 500.37 813.144 500.175 811.462 500.423 C 809.779 500.671 808.893 501.167 807.321 502.232 C 805.749 503.293 805.1 504.247 803.592 505.735 C 802.088 507.217 801.297 508.198 799.783 509.649 C 798.275 511.099 797.468 511.922 796.038 512.988 C 794.609 514.053 793.913 514.438 792.641 514.966 C 791.365 515.498 790.832 515.588 789.666 515.636 C 788.506 515.688 787.973 515.651 786.823 515.219 C 785.673 514.786 785.03 514.523 783.906 513.483 C 782.783 512.439 782.203 511.569 781.206 510.007 C 780.214 508.451 779.882 507.212 778.932 505.682 C 777.988 504.158 777.608 503.219 776.469 502.369 C 775.335 501.52 774.475 501.22 773.246 501.431 C 772.022 501.642 771.136 502.158 770.334 503.424 C 769.538 504.69 769.749 506.009 769.264 507.766 C 768.778 509.522 768.625 510.609 767.913 512.217 C 767.201 513.821 766.7 514.607 765.708 515.799 C 764.722 516.991 764.205 517.455 762.971 518.167 C 761.731 518.879 761.051 519.117 759.532 519.359 C 758.018 519.607 757.095 519.644 755.386 519.391 C 753.677 519.138 752.69 518.906 750.981 518.104 C 749.277 517.302 748.302 516.733 746.856 515.382 C 745.406 514.027 744.657 513.019 743.744 511.331 C 742.832 509.643 742.758 508.451 742.294 506.927 C 741.829 505.408 741.946 504.622 741.418 503.72 C 740.896 502.823 740.258 502.486 739.672 502.438 C 739.081 502.391 738.86 502.67 738.475 503.493 C 738.09 504.316 738.28 505.017 737.736 506.552 C 737.188 508.087 736.94 509.316 735.742 511.173 C 734.55 513.025 733.659 514.174 731.749 515.82 C 729.84 517.466 728.558 518.247 726.195 519.402 C 723.827 520.552 722.381 521.016 719.918 521.575 C 717.455 522.134 716.046 522.25 713.879 522.192 C 711.705 522.134 710.582 521.87 709.063 521.29 C 707.549 520.715 707.011 520.341 706.293 519.301 C 705.576 518.268 705.318 517.714 705.481 516.116 C 705.639 514.517 705.951 513.346 707.095 511.31 C 708.245 509.279 709.274 507.919 711.209 505.956 C 713.14 503.994 714.527 502.881 716.769 501.499 C 719.011 500.122 720.314 499.537 722.418 499.062 C 724.523 498.587 725.641 498.899 727.303 499.131 C 728.964 499.363 729.513 499.985 730.737 500.228 C 731.955 500.476 732.657 500.708 733.411 500.355 C 734.16 500.001 734.693 499.363 734.482 498.466" style="stroke: currentColor; fill: currentColor;"/>
  <path d="M 880.398 507.882 C 880.498 506.985 880.266 506.046 879.321 504.917 C 878.377 503.783 877.491 503.108 875.682 502.238 C 873.873 501.362 872.591 500.84 870.286 500.55 C 867.981 500.26 866.657 500.328 864.146 500.792 C 861.635 501.257 860.164 501.705 857.732 502.86 C 855.3 504.015 853.945 504.854 851.982 506.568 C 850.025 508.282 849.034 509.374 847.937 511.437 C 846.839 513.505 846.391 514.807 846.502 516.891 C 846.613 518.969 847.161 520.246 848.49 521.849 C 849.82 523.458 851.007 524.133 853.153 524.924 C 855.295 525.716 856.677 525.884 859.225 525.811 C 861.772 525.737 863.244 525.447 865.892 524.555 C 868.54 523.658 869.954 522.994 872.459 521.338 C 874.965 519.676 876.262 518.626 878.414 516.253 C 880.566 513.874 881.637 512.413 883.23 509.448 C 884.818 506.484 885.456 504.711 886.358 501.42 C 887.265 498.123 887.54 496.288 887.751 492.975 C 887.962 489.663 887.803 487.853 887.418 484.847 C 887.028 481.84 886.585 480.337 885.804 477.931 C 885.024 475.526 884.76 474.186 883.52 472.82 C 882.281 471.449 881.031 470.906 879.617 471.08 C 878.198 471.259 876.921 471.997 876.441 473.701 C 875.956 475.4 876.6 476.792 877.206 479.588 C 877.813 482.383 878.314 484.23 879.474 487.674 C 880.63 491.113 881.431 493.239 883.003 496.799 C 884.575 500.355 885.519 502.259 887.334 505.455 C 889.154 508.646 890.14 510.134 892.092 512.766 C 894.043 515.393 895.056 516.564 897.092 518.61 C 899.128 520.652 900.178 521.596 902.272 522.994 C 904.371 524.392 905.479 524.988 907.584 525.594 C 909.694 526.196 910.901 526.375 912.806 526.011 C 914.715 525.652 916.419 524.671 917.115 523.78 C 917.811 522.894 917.252 521.828 916.287 521.559 C 915.316 521.29 913.84 522.266 912.268 522.429 C 910.696 522.588 910.11 522.746 908.422 522.366 C 906.729 521.981 905.732 521.638 903.817 520.525 C 901.903 519.412 900.827 518.616 898.843 516.791 C 896.855 514.966 895.821 513.879 893.896 511.395 C 891.976 508.91 890.989 507.475 889.233 504.379 C 887.471 501.278 886.543 499.4 885.108 495.897 C 883.678 492.4 882.987 490.264 882.064 486.883 C 881.136 483.502 880.835 481.555 880.482 478.997 C 880.129 476.444 880.471 475.273 880.287 474.102 C 880.107 472.936 879.543 472.957 879.585 473.158 C 879.622 473.358 879.817 473.933 880.487 475.099 C 881.162 476.27 882.08 476.966 882.951 478.997 C 883.821 481.023 884.364 482.463 884.844 485.232 C 885.324 488.001 885.498 489.726 885.345 492.838 C 885.192 495.95 884.929 497.701 884.079 500.792 C 883.225 503.883 882.602 505.55 881.094 508.293 C 879.59 511.036 878.562 512.376 876.536 514.517 C 874.511 516.659 873.277 517.582 870.966 519.001 C 868.651 520.425 867.327 520.947 864.974 521.617 C 862.622 522.292 861.303 522.403 859.198 522.361 C 857.099 522.319 856.033 522.007 854.472 521.406 C 852.916 520.805 852.267 520.293 851.413 519.349 C 850.558 518.405 850.284 517.935 850.21 516.68 C 850.131 515.425 850.226 514.591 851.022 513.067 C 851.819 511.542 852.563 510.503 854.182 509.058 C 855.801 507.613 857.02 506.8 859.124 505.84 C 861.224 504.875 862.6 504.506 864.689 504.247 C 866.778 503.984 867.817 504.094 869.563 504.537 C 871.314 504.98 872.09 505.661 873.424 506.468 C 874.759 507.27 875.154 507.966 876.236 508.552 C 877.312 509.137 877.982 509.533 878.815 509.401 C 879.649 509.264 880.292 508.778 880.398 507.882" style="stroke: currentColor; fill: currentColor;"/>
  <path d="M 926.61 512.84 C 927.448 513.088 928.245 512.914 929.474 512.355 C 930.703 511.795 931.389 511.136 932.744 510.044 C 934.105 508.952 935.002 508.219 936.263 506.89 C 937.523 505.566 938.278 504.886 939.058 503.409 C 939.834 501.926 940.129 501.019 940.155 499.495 C 940.182 497.97 940.008 497.053 939.185 495.781 C 938.362 494.515 937.618 493.761 936.046 493.16 C 934.474 492.564 933.303 492.458 931.331 492.791 C 929.358 493.128 928.176 493.703 926.172 494.837 C 924.173 495.971 923.033 496.768 921.324 498.461 C 919.621 500.154 918.661 501.204 917.648 503.298 C 916.63 505.392 916.155 506.732 916.255 508.942 C 916.356 511.147 916.799 512.439 918.144 514.322 C 919.494 516.205 920.602 517.007 922.997 518.357 C 925.386 519.702 926.937 520.225 930.112 521.053 C 933.288 521.881 935.234 522.129 938.868 522.493 C 942.497 522.857 944.56 522.904 948.273 522.867 C 951.992 522.83 953.98 522.677 957.446 522.308 C 960.912 521.944 962.673 521.638 965.606 521.032 C 968.539 520.425 969.873 520.024 972.11 519.286 C 974.352 518.542 975.517 518.199 976.799 517.334 C 978.081 516.474 978.324 515.672 978.519 514.971 C 978.714 514.275 978.318 513.879 977.77 513.847 C 977.221 513.816 976.393 514.043 975.776 514.823 C 975.164 515.604 974.652 516.548 974.7 517.745 C 974.747 518.943 975.116 519.919 976.024 520.8 C 976.926 521.686 977.991 522.097 979.226 522.16 C 980.46 522.224 981.314 521.992 982.19 521.121 C 983.066 520.251 983.54 519.386 983.593 517.814 C 983.646 516.242 982.939 515.229 982.459 513.257 C 981.979 511.289 981.568 510.028 981.193 507.966 C 980.818 505.904 980.644 504.717 980.597 502.95 C 980.549 501.177 980.613 500.397 980.956 499.12 C 981.304 497.838 981.473 497.453 982.327 496.551 C 983.176 495.649 983.63 495.259 985.223 494.6 C 986.816 493.94 987.871 493.598 990.297 493.249 C 992.724 492.896 994.285 492.796 997.36 492.843 C 1000.435 492.891 1002.281 493.06 1005.673 493.482 C 1009.07 493.903 1011.191 494.32 1014.334 494.948 C 1017.478 495.576 1019.071 496.061 1021.392 496.615 C 1023.713 497.169 1024.499 497.554 1025.939 497.717 C 1027.379 497.875 1028.001 497.738 1028.597 497.416 C 1029.193 497.095 1029.304 496.673 1028.914 496.108 C 1028.523 495.549 1028.022 495.096 1026.646 494.616 C 1025.264 494.136 1024.377 494.146 1022.009 493.703 C 1019.641 493.26 1018.006 492.949 1014.804 492.4 C 1011.602 491.857 1009.466 491.44 1005.995 490.981 C 1002.529 490.522 1000.667 490.29 997.46 490.111 C 994.253 489.926 992.66 489.863 989.949 490.069 C 987.243 490.274 986.014 490.401 983.915 491.14 C 981.815 491.873 980.824 492.379 979.458 493.745 C 978.091 495.111 977.654 496.124 977.073 497.97 C 976.498 499.816 976.588 500.877 976.572 502.981 C 976.556 505.086 976.82 506.294 976.994 508.504 C 977.174 510.709 977.337 512.054 977.453 514.016 C 977.569 515.978 977.279 517.028 977.575 518.315 C 977.865 519.602 978.297 520.061 978.914 520.457 C 979.531 520.852 980.027 520.689 980.66 520.293 C 981.293 519.892 981.81 519.238 982.079 518.468 C 982.353 517.703 982.306 517.223 982.011 516.458 C 981.71 515.688 981.267 515.261 980.597 514.628 C 979.927 513.995 979.4 513.642 978.651 513.294 C 977.907 512.951 977.685 512.787 976.868 512.898 C 976.05 513.003 975.744 513.125 974.563 513.837 C 973.381 514.549 972.864 515.509 970.96 516.458 C 969.056 517.403 967.79 517.867 965.036 518.584 C 962.283 519.301 960.542 519.639 957.188 520.05 C 953.833 520.457 951.871 520.61 948.257 520.631 C 944.644 520.647 942.613 520.562 939.132 520.13 C 935.645 519.702 933.752 519.359 930.835 518.479 C 927.913 517.598 926.515 516.949 924.537 515.73 C 922.559 514.507 921.862 513.752 920.934 512.376 C 920 510.999 919.874 510.324 919.884 508.852 C 919.895 507.375 920.159 506.51 920.982 505.002 C 921.804 503.488 922.575 502.565 924.004 501.293 C 925.433 500.027 926.51 499.379 928.129 498.661 C 929.748 497.944 930.777 497.896 932.106 497.712 C 933.435 497.527 933.968 497.67 934.765 497.733 C 935.566 497.796 935.809 497.78 936.088 498.028 C 936.368 498.282 936.4 498.445 936.162 498.978 C 935.92 499.511 935.614 499.869 934.891 500.703 C 934.168 501.531 933.678 502.1 932.549 503.134 C 931.42 504.168 930.476 504.801 929.247 505.877 C 928.023 506.948 927.206 507.46 926.409 508.515 C 925.618 509.564 925.238 510.266 925.28 511.131 C 925.323 511.996 925.771 512.597 926.61 512.84" style="stroke: currentColor; fill: currentColor;"/>
</svg>